<mxfile modified="2023-03-15T22:14:31.915Z" host="Electron" agent="5.0 (Windows NT 10.0; Win64; x64) AppleWebKit/537.36 (KHTML, like Gecko) draw.io/20.3.0 Chrome/104.0.5112.114 Electron/20.1.3 Safari/537.36" etag="yaACzjUvEbOwh7DOqe7D" compressed="false" version="20.3.0" type="device">
  <diagram id="1GGxgcg9zpcTlT68tFhP" name="Functionality/Analysis/Capabilities/Users &amp; Group Management">
    <mxGraphModel dx="782" dy="517" grid="1" gridSize="10" guides="1" tooltips="1" connect="1" arrows="1" fold="1" page="1" pageScale="1" pageWidth="827" pageHeight="1169" math="0" shadow="0">
      <root>
        <mxCell id="U2vRWpI0dpXCsrSGyEU3-0" />
        <mxCell id="U2vRWpI0dpXCsrSGyEU3-1" parent="U2vRWpI0dpXCsrSGyEU3-0" />
        <mxCell id="U2vRWpI0dpXCsrSGyEU3-2" value="Users Belong to Multiple Groups" style="rounded=0;whiteSpace=wrap;html=1;fontSize=12;strokeWidth=1;fillColor=none;verticalAlign=top;" parent="U2vRWpI0dpXCsrSGyEU3-1" vertex="1">
          <mxGeometry x="360" y="70" width="80" height="80" as="geometry" />
        </mxCell>
        <mxCell id="U2vRWpI0dpXCsrSGyEU3-3" value="Nestable Groups" style="rounded=0;whiteSpace=wrap;html=1;fontSize=12;strokeWidth=1;fillColor=none;verticalAlign=top;" parent="U2vRWpI0dpXCsrSGyEU3-1" vertex="1">
          <mxGeometry x="270" y="70" width="80" height="80" as="geometry" />
        </mxCell>
        <mxCell id="U2vRWpI0dpXCsrSGyEU3-4" value="Users have a logical Role within each Group" style="rounded=0;whiteSpace=wrap;html=1;fontSize=12;strokeWidth=1;fillColor=none;verticalAlign=top;" parent="U2vRWpI0dpXCsrSGyEU3-1" vertex="1">
          <mxGeometry x="270" y="160" width="80" height="80" as="geometry" />
        </mxCell>
        <mxCell id="U2vRWpI0dpXCsrSGyEU3-9" value="Users have a logical Role in relationship to each Resources" style="rounded=0;whiteSpace=wrap;html=1;fontSize=12;strokeWidth=1;fillColor=none;verticalAlign=top;" parent="U2vRWpI0dpXCsrSGyEU3-1" vertex="1">
          <mxGeometry x="360" y="160" width="80" height="80" as="geometry" />
        </mxCell>
        <mxCell id="RXiOHoOsmugMSRAOVyyB-1" value="Permission based" style="rounded=0;whiteSpace=wrap;html=1;fontSize=12;strokeWidth=1;fillColor=none;verticalAlign=middle;" parent="U2vRWpI0dpXCsrSGyEU3-1" vertex="1">
          <mxGeometry x="270" y="250" width="80" height="70" as="geometry" />
        </mxCell>
        <mxCell id="RXiOHoOsmugMSRAOVyyB-3" value="Invitation based" style="rounded=0;whiteSpace=wrap;html=1;fontSize=12;strokeWidth=1;fillColor=none;verticalAlign=middle;" parent="U2vRWpI0dpXCsrSGyEU3-1" vertex="1">
          <mxGeometry x="360" y="250" width="80" height="70" as="geometry" />
        </mxCell>
        <mxCell id="Ak5vMOKQBrF32ffl_ZrU-1" value="Title" parent="U2vRWpI0dpXCsrSGyEU3-0" visible="0" />
        <mxCell id="RXiOHoOsmugMSRAOVyyB-0" value="&lt;font style=&quot;font-size: 12px&quot;&gt;Diagram: Base System Logical Module - Basic User , Group, Role Capability Requirements - HL&lt;/font&gt;" style="text;strokeColor=none;fillColor=none;html=1;fontSize=12;fontStyle=2;verticalAlign=middle;align=left;shadow=0;glass=0;comic=0;opacity=30;fontColor=#808080;strokeWidth=1;" parent="Ak5vMOKQBrF32ffl_ZrU-1" vertex="1">
          <mxGeometry x="120" y="340" width="560" height="20" as="geometry" />
        </mxCell>
        <mxCell id="Ak5vMOKQBrF32ffl_ZrU-2" value="Notes" parent="U2vRWpI0dpXCsrSGyEU3-0" />
        <mxCell id="U2vRWpI0dpXCsrSGyEU3-5" value="Required to correctly reflect Schools, Departments, Courses, Classrooms" style="rounded=0;whiteSpace=wrap;html=1;fontSize=12;strokeWidth=1;fillColor=none;verticalAlign=top;strokeColor=none;fontStyle=2;align=right;" parent="Ak5vMOKQBrF32ffl_ZrU-2" vertex="1">
          <mxGeometry x="140" y="70" width="120" height="90" as="geometry" />
        </mxCell>
        <mxCell id="U2vRWpI0dpXCsrSGyEU3-8" value="Required to correctly reflect Teachers, Assistants, Learners in the same Course" style="rounded=0;whiteSpace=wrap;html=1;fontSize=12;strokeWidth=1;fillColor=none;verticalAlign=top;strokeColor=none;fontStyle=2;align=right;" parent="Ak5vMOKQBrF32ffl_ZrU-2" vertex="1">
          <mxGeometry x="140" y="160" width="120" height="80" as="geometry" />
        </mxCell>
        <mxCell id="RXiOHoOsmugMSRAOVyyB-5" value="Required to meet the control requirements in a million user shared environment." style="rounded=0;whiteSpace=wrap;html=1;fontSize=12;strokeWidth=1;fillColor=none;verticalAlign=top;strokeColor=none;fontStyle=2;align=right;" parent="Ak5vMOKQBrF32ffl_ZrU-2" vertex="1">
          <mxGeometry x="130" y="250" width="130" height="70" as="geometry" />
        </mxCell>
        <mxCell id="U2vRWpI0dpXCsrSGyEU3-7" value="Required to correctly reflect Persons belonging to multiple Schools, Courses, Years, Classrooms, Pastoral, Religious and Cultural groups at the same time." style="rounded=0;whiteSpace=wrap;html=1;fontSize=12;strokeWidth=1;fillColor=none;verticalAlign=middle;strokeColor=none;fontStyle=2;align=left;" parent="Ak5vMOKQBrF32ffl_ZrU-2" vertex="1">
          <mxGeometry x="450" y="70" width="210" height="80" as="geometry" />
        </mxCell>
        <mxCell id="U2vRWpI0dpXCsrSGyEU3-10" value="Required to correctly define the relationship of Creators, Editors, Approvers,&lt;br&gt;Publishers, Assessors and Assessees in relationship to a Resource." style="rounded=0;whiteSpace=wrap;html=1;fontSize=12;strokeWidth=1;fillColor=none;verticalAlign=middle;strokeColor=none;fontStyle=2;align=left;" parent="Ak5vMOKQBrF32ffl_ZrU-2" vertex="1">
          <mxGeometry x="450" y="160" width="210" height="80" as="geometry" />
        </mxCell>
        <mxCell id="RXiOHoOsmugMSRAOVyyB-4" value="Allows those most knowledgeable make decisions about providing temporary audited permissions within groups to resources. &lt;br&gt;(ie, removes Centralized delays)." style="rounded=0;whiteSpace=wrap;html=1;fontSize=12;strokeWidth=1;fillColor=none;verticalAlign=middle;strokeColor=none;fontStyle=2;align=left;" parent="Ak5vMOKQBrF32ffl_ZrU-2" vertex="1">
          <mxGeometry x="450" y="250" width="210" height="70" as="geometry" />
        </mxCell>
      </root>
    </mxGraphModel>
  </diagram>
</mxfile>
